<svg width="558" height="37" viewBox="0 0 558 37" fill="none" xmlns="http://www.w3.org/2000/svg">
<path d="M544.842 36.3C542.242 36.3 539.742 35.8833 537.342 35.05C534.976 34.1833 533.142 33.0833 531.842 31.75L533.292 28.9C534.526 30.1 536.176 31.1167 538.242 31.95C540.342 32.75 542.542 33.15 544.842 33.15C547.042 33.15 548.826 32.8833 550.192 32.35C551.592 31.7833 552.609 31.0333 553.242 30.1C553.909 29.1667 554.242 28.1333 554.242 27C554.242 25.6333 553.842 24.5333 553.042 23.7C552.276 22.8667 551.259 22.2167 549.992 21.75C548.726 21.25 547.326 20.8167 545.792 20.45C544.259 20.0833 542.726 19.7 541.192 19.3C539.659 18.8667 538.242 18.3 536.942 17.6C535.676 16.9 534.642 15.9833 533.842 14.85C533.076 13.6833 532.692 12.1667 532.692 10.3C532.692 8.56666 533.142 6.98333 534.042 5.55C534.976 4.08333 536.392 2.91666 538.292 2.05C540.192 1.15 542.626 0.699997 545.592 0.699997C547.559 0.699997 549.509 0.98333 551.442 1.55C553.376 2.08333 555.042 2.83333 556.442 3.8L555.192 6.75C553.692 5.75 552.092 5.01666 550.392 4.55C548.726 4.08333 547.109 3.85 545.542 3.85C543.442 3.85 541.709 4.13333 540.342 4.7C538.976 5.26666 537.959 6.03333 537.292 7C536.659 7.93333 536.342 9 536.342 10.2C536.342 11.5667 536.726 12.6667 537.492 13.5C538.292 14.3333 539.326 14.9833 540.592 15.45C541.892 15.9167 543.309 16.3333 544.842 16.7C546.376 17.0667 547.892 17.4667 549.392 17.9C550.926 18.3333 552.326 18.9 553.592 19.6C554.892 20.2667 555.926 21.1667 556.692 22.3C557.492 23.4333 557.892 24.9167 557.892 26.75C557.892 28.45 557.426 30.0333 556.492 31.5C555.559 32.9333 554.126 34.1 552.192 35C550.292 35.8667 547.842 36.3 544.842 36.3Z" fill="white"/>
<path d="M505.045 16.65H523.545V19.8H505.045V16.65ZM505.445 32.8H526.495V36H501.745V1H525.745V4.2H505.445V32.8Z" fill="white"/>
<path d="M465.612 36V1H478.712C481.679 1 484.229 1.48333 486.362 2.45C488.495 3.38333 490.129 4.75 491.262 6.55C492.429 8.31667 493.012 10.4667 493.012 13C493.012 15.4667 492.429 17.6 491.262 19.4C490.129 21.1667 488.495 22.5333 486.362 23.5C484.229 24.4333 481.679 24.9 478.712 24.9H467.662L469.312 23.2V36H465.612ZM489.512 36L480.512 23.3H484.512L493.562 36H489.512ZM469.312 23.5L467.662 21.75H478.612C482.112 21.75 484.762 20.9833 486.562 19.45C488.395 17.9167 489.312 15.7667 489.312 13C489.312 10.2 488.395 8.03333 486.562 6.5C484.762 4.96667 482.112 4.2 478.612 4.2H467.662L469.312 2.45V23.5Z" fill="white"/>
<path d="M424.172 36L440.172 1H443.822L459.822 36H455.922L441.222 3.15H442.722L428.022 36H424.172ZM430.472 26.65L431.572 23.65H451.922L453.022 26.65H430.472Z" fill="white"/>
<path d="M406.617 36L391.117 1H395.117L409.617 33.95H407.417L422.017 1H425.767L410.267 36H406.617Z" fill="white"/>
<path d="M357.034 36L373.034 1H376.684L392.684 36H388.784L374.084 3.15H375.584L360.884 36H357.034ZM363.334 26.65L364.434 23.65H384.784L385.884 26.65H363.334Z" fill="white"/>
<path d="M342.48 36V4.2H330.18V1H358.48V4.2H346.18V36H342.48Z" fill="white"/>
<path d="M292.447 16.65H310.947V19.8H292.447V16.65ZM292.847 32.8H313.897V36H289.147V1H313.147V4.2H292.847V32.8Z" fill="white"/>
<path d="M253.014 36V1H266.114C269.081 1 271.631 1.48333 273.764 2.45C275.898 3.38333 277.531 4.75 278.664 6.55C279.831 8.31667 280.414 10.4667 280.414 13C280.414 15.4667 279.831 17.6 278.664 19.4C277.531 21.1667 275.898 22.5333 273.764 23.5C271.631 24.4333 269.081 24.9 266.114 24.9H255.064L256.714 23.2V36H253.014ZM276.914 36L267.914 23.3H271.914L280.964 36H276.914ZM256.714 23.5L255.064 21.75H266.014C269.514 21.75 272.164 20.9833 273.964 19.45C275.798 17.9167 276.714 15.7667 276.714 13C276.714 10.2 275.798 8.03333 273.964 6.5C272.164 4.96667 269.514 4.2 266.014 4.2H255.064L256.714 2.45V23.5Z" fill="white"/>
<path d="M211.706 36V1H225.956C229.689 1 232.956 1.75 235.756 3.25C238.589 4.71667 240.789 6.76667 242.356 9.4C243.923 12.0333 244.706 15.0667 244.706 18.5C244.706 21.9333 243.923 24.9667 242.356 27.6C240.789 30.2333 238.589 32.3 235.756 33.8C232.956 35.2667 229.689 36 225.956 36H211.706ZM215.406 32.8H225.756C228.856 32.8 231.539 32.2 233.806 31C236.106 29.7667 237.889 28.0833 239.156 25.95C240.423 23.7833 241.056 21.3 241.056 18.5C241.056 15.6667 240.423 13.1833 239.156 11.05C237.889 8.91667 236.106 7.25 233.806 6.05C231.539 4.81667 228.856 4.2 225.756 4.2H215.406V32.8Z" fill="white"/>
<path d="M171.032 36V1H174.082L198.232 31.4H196.632V1H200.282V36H197.232L173.132 5.6H174.732V36H171.032Z" fill="white"/>
<path d="M129.592 36L145.592 1H149.242L165.242 36H161.342L146.642 3.15H148.142L133.442 36H129.592ZM135.892 26.65L136.992 23.65H157.342L158.442 26.65H135.892Z" fill="white"/>
<path d="M99.141 36L113.491 16.6V19.45L99.991 1H104.241L115.591 16.4L113.941 16.45L125.291 1H129.291L115.941 19.2V16.6L130.241 36H125.941L113.841 19.55H115.391L103.391 36H99.141Z" fill="white"/>
<path d="M74.2832 16.65H92.7832V19.8H74.2832V16.65ZM74.6832 32.8H95.7332V36H70.9832V1H94.9832V4.2H74.6832V32.8Z" fill="white"/>
<path d="M41.5398 36V1H45.2398V32.8H64.8398V36H41.5398Z" fill="white"/>
<path d="M0.100006 36L16.1 1H19.75L35.75 36H31.85L17.15 3.15H18.65L3.95001 36H0.100006ZM6.40001 26.65L7.50001 23.65H27.85L28.95 26.65H6.40001Z" fill="white"/>
</svg>
