<svg width="90" height="10" viewBox="0 0 90 10" fill="none" xmlns="http://www.w3.org/2000/svg">
<path d="M84.8493 0.152115C87.4893 0.152115 89.6493 2.31212 89.6493 4.95212C89.6493 7.60412 87.4893 9.75212 84.8493 9.75212C82.1973 9.75212 80.0493 7.60412 80.0493 4.95212C80.0493 2.31212 82.1973 0.152115 84.8493 0.152115ZM84.8493 8.94812C87.0453 8.94812 88.8333 7.16012 88.8333 4.95212C88.8333 2.75611 87.0453 0.968114 84.8493 0.968114C82.6413 0.968114 80.8533 2.75611 80.8533 4.95212C80.8533 7.16012 82.6413 8.94812 84.8493 8.94812Z" fill="white"/>
<path d="M68.3942 8.94812H70.2662H70.9982V9.75212H68.3942H61.3982V9.14011V8.94812V0.152115H62.2022V8.94812H68.3942Z" fill="white"/>
<path d="M48.1142 8.94812H49.9862H50.7182V9.75212H48.1142H41.1182V9.14011V8.94812V0.152115H41.9222V8.94812H48.1142Z" fill="white"/>
<path d="M25.6382 0.152115H30.4382V0.968114H25.6382C23.4302 0.968114 21.6422 2.75611 21.6422 4.95212C21.6422 7.16012 23.4302 8.94812 25.6382 8.94812H30.4382V9.75212H25.6382C22.9862 9.75212 20.8382 7.60412 20.8382 4.95212C20.8382 2.31212 22.9862 0.152115 25.6382 0.152115ZM26.2022 4.95212C26.2022 4.62811 26.4782 4.35211 26.8022 4.35211C27.1382 4.35211 27.4142 4.62811 27.4142 4.95212C27.4142 5.28812 27.1382 5.56411 26.8022 5.56411C26.4782 5.56411 26.2022 5.28812 26.2022 4.95212Z" fill="white"/>
<path d="M9.3422 4.55612V0.152115H10.1582V9.75212H9.3422V5.36012H1.3622V9.75212H0.558197V0.152115H1.3622V4.55612H9.3422Z" fill="white"/>
</svg>
