<svg viewBox="0 0 41 40" fill="none" xmlns="http://www.w3.org/2000/svg">
<path d="M37.607 20.1525L41 4.5L35.5 7.6525C32.2706 3.99726 27.305 0.753579 22.4647 0.1525C17.6244 -0.448579 12.7313 0.739839 8.70596 3.49417C4.68061 6.2485 1.8005 10.3789 0.607509 15.1082C-0.585486 19.8375 -0.00913239 24.8398 2.22813 29.1739C4.4654 33.508 8.20936 36.8752 12.7556 38.6419C17.3019 40.4086 22.3371 40.4531 26.9138 38.767C31.4906 37.0809 35.2935 33.7805 37.607 29.4866L30.2539 25.5247C28.9065 28.0254 26.6918 29.9475 24.0264 30.9294C21.3611 31.9114 18.4287 31.8855 15.7811 30.8566C13.1335 29.8277 10.9531 27.8667 9.65015 25.3427C8.34722 22.8186 8.01157 19.9054 8.70634 17.1512C9.40111 14.3969 11.0784 11.9915 13.4227 10.3875C15.7669 8.78341 18.6165 8.09131 21.4354 8.44136C24.2543 8.79141 26.1193 9.02378 28 11.1525C28.601 11.8327 20.5 15.1082 20.5 15.1082L37.607 20.1525Z" fill="#D9D9D9"/>
</svg>
