<svg width="282" height="610" viewBox="0 0 282 610" fill="none" xmlns="http://www.w3.org/2000/svg">
<g filter="url(#filter0_d_7_6)">
<path d="M5 1C35 15 105 35 105 101C105 146.255 104.333 257.667 105 301C104.333 344.333 105 455.745 105 501C105 567 35 587 5 601H277C247 587 177 567 177 501C177 455.745 177.667 344.333 177 301C177.667 257.667 177 146.255 177 101C177 35 247 15 277 1H5Z" fill="#4D4D4D"/>
<path d="M5 1C35 15 105 35 105 101C105 146.255 104.333 257.667 105 301C104.333 344.333 105 455.745 105 501C105 567 35 587 5 601H277C247 587 177 567 177 501C177 455.745 177.667 344.333 177 301C177.667 257.667 177 146.255 177 101C177 35 247 15 277 1H5Z" stroke="black"/>
</g>
<defs>
<filter id="filter0_d_7_6" x="0.788557" y="0.5" width="280.423" height="609" filterUnits="userSpaceOnUse" color-interpolation-filters="sRGB">
<feFlood flood-opacity="0" result="BackgroundImageFix"/>
<feColorMatrix in="SourceAlpha" type="matrix" values="0 0 0 0 0 0 0 0 0 0 0 0 0 0 0 0 0 0 127 0" result="hardAlpha"/>
<feOffset dy="4"/>
<feGaussianBlur stdDeviation="2"/>
<feComposite in2="hardAlpha" operator="out"/>
<feColorMatrix type="matrix" values="0 0 0 0 0 0 0 0 0 0 0 0 0 0 0 0 0 0 0.25 0"/>
<feBlend mode="normal" in2="BackgroundImageFix" result="effect1_dropShadow_7_6"/>
<feBlend mode="normal" in="SourceGraphic" in2="effect1_dropShadow_7_6" result="shape"/>
</filter>
</defs>
</svg>
