<svg width="2210" height="2873" viewBox="0 0 2210 2873" fill="none" xmlns="http://www.w3.org/2000/svg">
<path d="M1062 2557C1204.2 2545.94 1378 2352.39 1378 2241C1378 2350.81 1553.38 2557 1694 2557C1674.36 2557 1379.13 2665.6 1378 2871.82C1378 2872.21 1378 2872.61 1378 2873C1378 2872.61 1378 2872.21 1378 2871.82C1378 2665.6 1081.64 2557 1062 2557Z" fill="#FFD88D"/>
<path d="M1062 2557C1204.2 2545.94 1378 2352.39 1378 2241C1378 2350.81 1553.38 2557 1694 2557C1674.32 2557 1378 2666.02 1378 2873C1379.13 2666.02 1081.68 2557 1062 2557Z" stroke="black" stroke-width="1.58"/>
<path d="M1378 600C1468 593 1578 470.5 1578 400C1578 469.5 1689 600 1778 600C1765.57 600 1578.71 668.737 1578 799.251C1578 799.501 1578 799.75 1578 800C1578 799.75 1578 799.501 1578 799.251C1578 668.737 1390.43 600 1378 600Z" fill="#FFD88D"/>
<path d="M1378 600C1468 593 1578 470.5 1578 400C1578 469.5 1689 600 1778 600C1765.55 600 1578 669 1578 800C1578.72 669 1390.45 600 1378 600Z" stroke="black"/>
<path d="M833 1775C923 1768 1033 1645.5 1033 1575C1033 1644.5 1144 1775 1233 1775C1220.57 1775 1033.71 1843.74 1033 1974.25C1033 1974.5 1033 1974.75 1033 1975C1033 1974.75 1033 1974.5 1033 1974.25C1033 1843.74 845.429 1775 833 1775Z" fill="#FFD88D"/>
<path d="M833 1775C923 1768 1033 1645.5 1033 1575C1033 1644.5 1144 1775 1233 1775C1220.55 1775 1033 1844 1033 1975C1033.72 1844 845.453 1775 833 1775Z" stroke="black"/>
<path d="M1578 1459C1720.2 1447.94 1894 1254.39 1894 1143C1894 1252.81 2069.38 1459 2210 1459C2190.36 1459 1895.13 1567.6 1894 1773.82C1894 1774.21 1894 1774.61 1894 1775C1894 1774.61 1894 1774.21 1894 1773.82C1894 1567.6 1597.64 1459 1578 1459Z" fill="#FFD88D"/>
<path d="M1578 1459C1720.2 1447.94 1894 1254.39 1894 1143C1894 1252.81 2069.38 1459 2210 1459C2190.32 1459 1894 1568.02 1894 1775C1895.13 1568.02 1597.68 1459 1578 1459Z" stroke="black" stroke-width="1.58"/>
<path d="M1 2091C143.2 2079.94 317 1886.39 317 1775C317 1884.81 492.38 2091 633 2091C613.362 2091 318.129 2199.6 317.003 2405.82C317.003 2406.21 317.002 2406.61 317 2407C317 2406.61 317.001 2406.21 317.003 2405.82C317 2199.6 20.6376 2091 1 2091Z" fill="#FFD88D"/>
<path d="M1 2091C143.2 2079.94 317 1886.39 317 1775C317 1884.81 492.38 2091 633 2091C613.325 2091 317 2200.02 317 2407C318.133 2200.02 20.6752 2091 1 2091Z" stroke="black" stroke-width="1.58"/>
<path d="M833 200C923 193 1033 70.5 1033 0C1033 69.5 1144 200 1233 200C1220.57 200 1033.71 268.737 1033 399.251C1033 399.501 1033 399.75 1033 400C1033 399.75 1033 399.501 1033 399.251C1033 268.737 845.429 200 833 200Z" fill="#FFD88D"/>
<path d="M833 200C923 193 1033 70.5 1033 0C1033 69.5 1144 200 1233 200C1220.55 200 1033 269 1033 400C1033.72 269 845.453 200 833 200Z" stroke="black"/>
<path d="M317 943C407 936 517 813.5 517 743C517 812.5 628 943 717 943C704.571 943 517.715 1011.74 517.002 1142.25C517.002 1142.5 517.001 1142.75 517 1143C517 1142.75 517.001 1142.5 517.002 1142.25C517 1011.74 329.429 943 317 943Z" fill="#FFD88D"/>
<path d="M317 943C407 936 517 813.5 517 743C517 812.5 628 943 717 943C704.547 943 517 1012 517 1143C517.717 1012 329.453 943 317 943Z" stroke="black"/>
</svg>
