<svg width="21" height="20" viewBox="0 0 21 20" fill="none" xmlns="http://www.w3.org/2000/svg">
<path fill-rule="evenodd" clip-rule="evenodd" d="M2.0802 4.27678C0.873291 4.66515 0 5.79717 0 7.13317V13.1332C0 14.79 1.34314 16.1332 3 16.1332H7C7.05127 16.1332 7.10223 16.1319 7.15286 16.1293C7.22693 16.2474 7.32587 16.3504 7.44531 16.43L11.4453 19.0967C12.028 19.4852 12.7841 19.1668 12.9615 18.5441C12.8278 18.4772 12.7071 18.3791 12.611 18.2516L2.0802 4.27678ZM13 13.7829V2.0017C13 1.20299 12.1099 0.726614 11.4453 1.16961L7.44531 3.83629C7.32587 3.91594 7.22693 4.01891 7.15286 4.13701C7.10223 4.13445 7.05127 4.13317 7 4.13317H5.72839L13 13.7829Z" fill="#D9D9D9"/>
<rect x="0.5" y="0.90271" width="1.5" height="24" rx="0.75" transform="rotate(-37 0.5 0.90271)" fill="#D9D9D9"/>
</svg>
